<svg xmlns="http://www.w3.org/2000/svg" width="133.667" height="105.667" viewBox="0 0 133.667 105.667">
  <defs>
    <style>
      .cls-1 {
        fill: #0e6a8d;
      }
    </style>
  </defs>
  <g id="dotted-shape" transform="translate(0 0)">
    <circle id="Ellipse_1" data-name="Ellipse 1" class="cls-1" cx="1.667" cy="1.667" r="1.667" transform="translate(0 105.667) rotate(-90)"/>
    <circle id="Ellipse_2" data-name="Ellipse 2" class="cls-1" cx="1.667" cy="1.667" r="1.667" transform="translate(14.667 105.667) rotate(-90)"/>
    <circle id="Ellipse_3" data-name="Ellipse 3" class="cls-1" cx="1.667" cy="1.667" r="1.667" transform="translate(29.333 105.667) rotate(-90)"/>
    <circle id="Ellipse_4" data-name="Ellipse 4" class="cls-1" cx="1.667" cy="1.667" r="1.667" transform="translate(44 105.667) rotate(-90)"/>
    <circle id="Ellipse_5" data-name="Ellipse 5" class="cls-1" cx="1.667" cy="1.667" r="1.667" transform="translate(58.667 105.667) rotate(-90)"/>
    <circle id="Ellipse_6" data-name="Ellipse 6" class="cls-1" cx="1.667" cy="1.667" r="1.667" transform="translate(87 105.667) rotate(-90)"/>
    <circle id="Ellipse_7" data-name="Ellipse 7" class="cls-1" cx="1.667" cy="1.667" r="1.667" transform="translate(116 105.667) rotate(-90)"/>
    <circle id="Ellipse_8" data-name="Ellipse 8" class="cls-1" cx="1.667" cy="1.667" r="1.667" transform="translate(73 105.667) rotate(-90)"/>
    <circle id="Ellipse_9" data-name="Ellipse 9" class="cls-1" cx="1.667" cy="1.667" r="1.667" transform="translate(101.333 105.667) rotate(-90)"/>
    <circle id="Ellipse_10" data-name="Ellipse 10" class="cls-1" cx="1.667" cy="1.667" r="1.667" transform="translate(130.333 105.667) rotate(-90)"/>
    <circle id="Ellipse_11" data-name="Ellipse 11" class="cls-1" cx="1.667" cy="1.667" r="1.667" transform="translate(0 91) rotate(-90)"/>
    <circle id="Ellipse_12" data-name="Ellipse 12" class="cls-1" cx="1.667" cy="1.667" r="1.667" transform="translate(14.667 91) rotate(-90)"/>
    <circle id="Ellipse_13" data-name="Ellipse 13" class="cls-1" cx="1.667" cy="1.667" r="1.667" transform="translate(29.333 91) rotate(-90)"/>
    <circle id="Ellipse_14" data-name="Ellipse 14" class="cls-1" cx="1.667" cy="1.667" r="1.667" transform="translate(44 91) rotate(-90)"/>
    <circle id="Ellipse_15" data-name="Ellipse 15" class="cls-1" cx="1.667" cy="1.667" r="1.667" transform="translate(58.667 91) rotate(-90)"/>
    <circle id="Ellipse_16" data-name="Ellipse 16" class="cls-1" cx="1.667" cy="1.667" r="1.667" transform="translate(87 91) rotate(-90)"/>
    <circle id="Ellipse_17" data-name="Ellipse 17" class="cls-1" cx="1.667" cy="1.667" r="1.667" transform="translate(116 91) rotate(-90)"/>
    <circle id="Ellipse_18" data-name="Ellipse 18" class="cls-1" cx="1.667" cy="1.667" r="1.667" transform="translate(73 91) rotate(-90)"/>
    <circle id="Ellipse_19" data-name="Ellipse 19" class="cls-1" cx="1.667" cy="1.667" r="1.667" transform="translate(101.333 91) rotate(-90)"/>
    <circle id="Ellipse_20" data-name="Ellipse 20" class="cls-1" cx="1.667" cy="1.667" r="1.667" transform="translate(130.333 91) rotate(-90)"/>
    <circle id="Ellipse_21" data-name="Ellipse 21" class="cls-1" cx="1.667" cy="1.667" r="1.667" transform="translate(0 76.334) rotate(-90)"/>
    <circle id="Ellipse_22" data-name="Ellipse 22" class="cls-1" cx="1.667" cy="1.667" r="1.667" transform="translate(0 32.667) rotate(-90)"/>
    <circle id="Ellipse_23" data-name="Ellipse 23" class="cls-1" cx="1.667" cy="1.667" r="1.667" transform="translate(14.667 76.334) rotate(-90)"/>
    <circle id="Ellipse_24" data-name="Ellipse 24" class="cls-1" cx="1.667" cy="1.667" r="1.667" transform="translate(14.667 32.667) rotate(-90)"/>
    <circle id="Ellipse_25" data-name="Ellipse 25" class="cls-1" cx="1.667" cy="1.667" r="1.667" transform="translate(29.333 76.334) rotate(-90)"/>
    <circle id="Ellipse_26" data-name="Ellipse 26" class="cls-1" cx="1.667" cy="1.667" r="1.667" transform="translate(29.333 32.667) rotate(-90)"/>
    <circle id="Ellipse_27" data-name="Ellipse 27" class="cls-1" cx="1.667" cy="1.667" r="1.667" transform="translate(44 76.334) rotate(-90)"/>
    <circle id="Ellipse_28" data-name="Ellipse 28" class="cls-1" cx="1.667" cy="1.667" r="1.667" transform="translate(44 32.667) rotate(-90)"/>
    <circle id="Ellipse_29" data-name="Ellipse 29" class="cls-1" cx="1.667" cy="1.667" r="1.667" transform="translate(58.667 76.333) rotate(-90)"/>
    <circle id="Ellipse_30" data-name="Ellipse 30" class="cls-1" cx="1.667" cy="1.667" r="1.667" transform="translate(58.667 32.667) rotate(-90)"/>
    <circle id="Ellipse_31" data-name="Ellipse 31" class="cls-1" cx="1.667" cy="1.667" r="1.667" transform="translate(87 76.333) rotate(-90)"/>
    <circle id="Ellipse_32" data-name="Ellipse 32" class="cls-1" cx="1.667" cy="1.667" r="1.667" transform="translate(87 32.667) rotate(-90)"/>
    <circle id="Ellipse_33" data-name="Ellipse 33" class="cls-1" cx="1.667" cy="1.667" r="1.667" transform="translate(116 76.333) rotate(-90)"/>
    <circle id="Ellipse_34" data-name="Ellipse 34" class="cls-1" cx="1.667" cy="1.667" r="1.667" transform="translate(116 32.667) rotate(-90)"/>
    <circle id="Ellipse_35" data-name="Ellipse 35" class="cls-1" cx="1.667" cy="1.667" r="1.667" transform="translate(73 76.333) rotate(-90)"/>
    <circle id="Ellipse_36" data-name="Ellipse 36" class="cls-1" cx="1.667" cy="1.667" r="1.667" transform="translate(73 32.667) rotate(-90)"/>
    <circle id="Ellipse_37" data-name="Ellipse 37" class="cls-1" cx="1.667" cy="1.667" r="1.667" transform="translate(101.333 76.333) rotate(-90)"/>
    <circle id="Ellipse_38" data-name="Ellipse 38" class="cls-1" cx="1.667" cy="1.667" r="1.667" transform="translate(101.333 32.667) rotate(-90)"/>
    <circle id="Ellipse_39" data-name="Ellipse 39" class="cls-1" cx="1.667" cy="1.667" r="1.667" transform="translate(130.333 76.333) rotate(-90)"/>
    <circle id="Ellipse_40" data-name="Ellipse 40" class="cls-1" cx="1.667" cy="1.667" r="1.667" transform="translate(130.333 32.667) rotate(-90)"/>
    <circle id="Ellipse_41" data-name="Ellipse 41" class="cls-1" cx="1.667" cy="1.667" r="1.667" transform="translate(0 61.667) rotate(-90)"/>
    <circle id="Ellipse_42" data-name="Ellipse 42" class="cls-1" cx="1.667" cy="1.667" r="1.667" transform="translate(0 18) rotate(-90)"/>
    <circle id="Ellipse_43" data-name="Ellipse 43" class="cls-1" cx="1.667" cy="1.667" r="1.667" transform="translate(14.667 61.667) rotate(-90)"/>
    <circle id="Ellipse_44" data-name="Ellipse 44" class="cls-1" cx="1.667" cy="1.667" r="1.667" transform="translate(14.667 18) rotate(-90)"/>
    <circle id="Ellipse_45" data-name="Ellipse 45" class="cls-1" cx="1.667" cy="1.667" r="1.667" transform="translate(29.333 61.667) rotate(-90)"/>
    <circle id="Ellipse_46" data-name="Ellipse 46" class="cls-1" cx="1.667" cy="1.667" r="1.667" transform="translate(29.333 18) rotate(-90)"/>
    <circle id="Ellipse_47" data-name="Ellipse 47" class="cls-1" cx="1.667" cy="1.667" r="1.667" transform="translate(44 61.667) rotate(-90)"/>
    <circle id="Ellipse_48" data-name="Ellipse 48" class="cls-1" cx="1.667" cy="1.667" r="1.667" transform="translate(44 18) rotate(-90)"/>
    <circle id="Ellipse_49" data-name="Ellipse 49" class="cls-1" cx="1.667" cy="1.667" r="1.667" transform="translate(58.667 61.667) rotate(-90)"/>
    <circle id="Ellipse_50" data-name="Ellipse 50" class="cls-1" cx="1.667" cy="1.667" r="1.667" transform="translate(58.667 18) rotate(-90)"/>
    <circle id="Ellipse_51" data-name="Ellipse 51" class="cls-1" cx="1.667" cy="1.667" r="1.667" transform="translate(87 61.667) rotate(-90)"/>
    <circle id="Ellipse_52" data-name="Ellipse 52" class="cls-1" cx="1.667" cy="1.667" r="1.667" transform="translate(87 18) rotate(-90)"/>
    <circle id="Ellipse_53" data-name="Ellipse 53" class="cls-1" cx="1.667" cy="1.667" r="1.667" transform="translate(116 61.667) rotate(-90)"/>
    <circle id="Ellipse_54" data-name="Ellipse 54" class="cls-1" cx="1.667" cy="1.667" r="1.667" transform="translate(116 18) rotate(-90)"/>
    <circle id="Ellipse_55" data-name="Ellipse 55" class="cls-1" cx="1.667" cy="1.667" r="1.667" transform="translate(73 61.667) rotate(-90)"/>
    <circle id="Ellipse_56" data-name="Ellipse 56" class="cls-1" cx="1.667" cy="1.667" r="1.667" transform="translate(73 18) rotate(-90)"/>
    <circle id="Ellipse_57" data-name="Ellipse 57" class="cls-1" cx="1.667" cy="1.667" r="1.667" transform="translate(101.333 61.667) rotate(-90)"/>
    <circle id="Ellipse_58" data-name="Ellipse 58" class="cls-1" cx="1.667" cy="1.667" r="1.667" transform="translate(101.333 18) rotate(-90)"/>
    <circle id="Ellipse_59" data-name="Ellipse 59" class="cls-1" cx="1.667" cy="1.667" r="1.667" transform="translate(130.333 61.667) rotate(-90)"/>
    <circle id="Ellipse_60" data-name="Ellipse 60" class="cls-1" cx="1.667" cy="1.667" r="1.667" transform="translate(130.333 18) rotate(-90)"/>
    <circle id="Ellipse_61" data-name="Ellipse 61" class="cls-1" cx="1.667" cy="1.667" r="1.667" transform="translate(0 47) rotate(-90)"/>
    <circle id="Ellipse_62" data-name="Ellipse 62" class="cls-1" cx="1.667" cy="1.667" r="1.667" transform="translate(0 3.333) rotate(-90)"/>
    <circle id="Ellipse_63" data-name="Ellipse 63" class="cls-1" cx="1.667" cy="1.667" r="1.667" transform="translate(14.667 47) rotate(-90)"/>
    <circle id="Ellipse_64" data-name="Ellipse 64" class="cls-1" cx="1.667" cy="1.667" r="1.667" transform="translate(14.667 3.333) rotate(-90)"/>
    <circle id="Ellipse_65" data-name="Ellipse 65" class="cls-1" cx="1.667" cy="1.667" r="1.667" transform="translate(29.333 47) rotate(-90)"/>
    <circle id="Ellipse_66" data-name="Ellipse 66" class="cls-1" cx="1.667" cy="1.667" r="1.667" transform="translate(29.333 3.333) rotate(-90)"/>
    <circle id="Ellipse_67" data-name="Ellipse 67" class="cls-1" cx="1.667" cy="1.667" r="1.667" transform="translate(44 47) rotate(-90)"/>
    <circle id="Ellipse_68" data-name="Ellipse 68" class="cls-1" cx="1.667" cy="1.667" r="1.667" transform="translate(44 3.333) rotate(-90)"/>
    <circle id="Ellipse_69" data-name="Ellipse 69" class="cls-1" cx="1.667" cy="1.667" r="1.667" transform="translate(58.667 47) rotate(-90)"/>
    <circle id="Ellipse_70" data-name="Ellipse 70" class="cls-1" cx="1.667" cy="1.667" r="1.667" transform="translate(58.667 3.334) rotate(-90)"/>
    <circle id="Ellipse_71" data-name="Ellipse 71" class="cls-1" cx="1.667" cy="1.667" r="1.667" transform="translate(87 47) rotate(-90)"/>
    <circle id="Ellipse_72" data-name="Ellipse 72" class="cls-1" cx="1.667" cy="1.667" r="1.667" transform="translate(87 3.334) rotate(-90)"/>
    <circle id="Ellipse_73" data-name="Ellipse 73" class="cls-1" cx="1.667" cy="1.667" r="1.667" transform="translate(116 47) rotate(-90)"/>
    <circle id="Ellipse_74" data-name="Ellipse 74" class="cls-1" cx="1.667" cy="1.667" r="1.667" transform="translate(116 3.334) rotate(-90)"/>
    <circle id="Ellipse_75" data-name="Ellipse 75" class="cls-1" cx="1.667" cy="1.667" r="1.667" transform="translate(73 47) rotate(-90)"/>
    <circle id="Ellipse_76" data-name="Ellipse 76" class="cls-1" cx="1.667" cy="1.667" r="1.667" transform="translate(73 3.334) rotate(-90)"/>
    <circle id="Ellipse_77" data-name="Ellipse 77" class="cls-1" cx="1.667" cy="1.667" r="1.667" transform="translate(101.333 47) rotate(-90)"/>
    <circle id="Ellipse_78" data-name="Ellipse 78" class="cls-1" cx="1.667" cy="1.667" r="1.667" transform="translate(101.333 3.334) rotate(-90)"/>
    <circle id="Ellipse_79" data-name="Ellipse 79" class="cls-1" cx="1.667" cy="1.667" r="1.667" transform="translate(130.333 47) rotate(-90)"/>
    <circle id="Ellipse_80" data-name="Ellipse 80" class="cls-1" cx="1.667" cy="1.667" r="1.667" transform="translate(130.333 3.334) rotate(-90)"/>
  </g>
</svg>
