<svg xmlns="http://www.w3.org/2000/svg" width="101.624" height="101.675" viewBox="0 0 101.624 101.675">
  <defs>
    <style>
      .cls-1 {
        fill: #0e6a8d;
      }
    </style>
  </defs>
  <g id="shape-2" transform="translate(0 -0.325)">
    <path id="Path_1" data-name="Path 1" class="cls-1" d="M1.867,33.2A1.868,1.868,0,1,1,0,35.063,1.867,1.867,0,0,1,1.867,33.2Z"/>
    <path id="Path_2" data-name="Path 2" class="cls-1" d="M18.294,33.2a1.868,1.868,0,1,1-1.867,1.868A1.867,1.867,0,0,1,18.294,33.2Z"/>
    <path id="Path_3" data-name="Path 3" class="cls-1" d="M34.721,33.2a1.868,1.868,0,1,1-1.867,1.868A1.867,1.867,0,0,1,34.721,33.2Z"/>
    <path id="Path_4" data-name="Path 4" class="cls-1" d="M50.934,33.2a1.868,1.868,0,1,1-1.867,1.868A1.867,1.867,0,0,1,50.934,33.2Z"/>
    <path id="Path_5" data-name="Path 5" class="cls-1" d="M1.867,16.761A1.868,1.868,0,1,1,0,18.628,1.867,1.867,0,0,1,1.867,16.761Z"/>
    <path id="Path_6" data-name="Path 6" class="cls-1" d="M18.294,16.761a1.868,1.868,0,1,1-1.867,1.868A1.867,1.867,0,0,1,18.294,16.761Z"/>
    <path id="Path_7" data-name="Path 7" class="cls-1" d="M34.721,16.761a1.868,1.868,0,1,1-1.867,1.868A1.867,1.867,0,0,1,34.721,16.761Z"/>
    <path id="Path_8" data-name="Path 8" class="cls-1" d="M50.934,16.761a1.868,1.868,0,1,1-1.867,1.868A1.867,1.867,0,0,1,50.934,16.761Z"/>
    <path id="Path_9" data-name="Path 9" class="cls-1" d="M1.867.325A1.868,1.868,0,1,1,0,2.193,1.867,1.867,0,0,1,1.867.325Z"/>
    <path id="Path_10" data-name="Path 10" class="cls-1" d="M18.294.325a1.868,1.868,0,1,1-1.867,1.868A1.867,1.867,0,0,1,18.294.325Z"/>
    <path id="Path_11" data-name="Path 11" class="cls-1" d="M34.721.326a1.868,1.868,0,1,1-1.867,1.868A1.867,1.867,0,0,1,34.721.326Z"/>
    <path id="Path_12" data-name="Path 12" class="cls-1" d="M50.934.326a1.868,1.868,0,1,1-1.867,1.868A1.867,1.867,0,0,1,50.934.326Z"/>
    <path id="Path_13" data-name="Path 13" class="cls-1" d="M66.9,33.2a1.868,1.868,0,1,1-1.867,1.868A1.867,1.867,0,0,1,66.9,33.2Z"/>
    <path id="Path_14" data-name="Path 14" class="cls-1" d="M83.331,33.2a1.868,1.868,0,1,1-1.867,1.868A1.867,1.867,0,0,1,83.331,33.2Z"/>
    <path id="Path_15" data-name="Path 15" class="cls-1" d="M99.758,33.2a1.868,1.868,0,1,1-1.867,1.868A1.867,1.867,0,0,1,99.758,33.2Z"/>
    <path id="Path_16" data-name="Path 16" class="cls-1" d="M66.9,16.761a1.868,1.868,0,1,1-1.867,1.868A1.867,1.867,0,0,1,66.9,16.761Z"/>
    <path id="Path_17" data-name="Path 17" class="cls-1" d="M83.331,16.761a1.868,1.868,0,1,1-1.867,1.868A1.867,1.867,0,0,1,83.331,16.761Z"/>
    <path id="Path_18" data-name="Path 18" class="cls-1" d="M99.758,16.761a1.868,1.868,0,1,1-1.867,1.868A1.867,1.867,0,0,1,99.758,16.761Z"/>
    <path id="Path_19" data-name="Path 19" class="cls-1" d="M66.9.325a1.868,1.868,0,1,1-1.867,1.868A1.867,1.867,0,0,1,66.9.325Z"/>
    <path id="Path_20" data-name="Path 20" class="cls-1" d="M83.331.325a1.868,1.868,0,1,1-1.867,1.868A1.867,1.867,0,0,1,83.331.325Z"/>
    <path id="Path_21" data-name="Path 21" class="cls-1" d="M99.758.325a1.868,1.868,0,1,1-1.867,1.868A1.867,1.867,0,0,1,99.758.325Z"/>
    <path id="Path_22" data-name="Path 22" class="cls-1" d="M1.867,82.2A1.868,1.868,0,1,1,0,84.071,1.867,1.867,0,0,1,1.867,82.2Z"/>
    <path id="Path_23" data-name="Path 23" class="cls-1" d="M18.294,82.2a1.868,1.868,0,1,1-1.867,1.868A1.867,1.867,0,0,1,18.294,82.2Z"/>
    <path id="Path_24" data-name="Path 24" class="cls-1" d="M34.721,82.2a1.868,1.868,0,1,1-1.867,1.868A1.867,1.867,0,0,1,34.721,82.2Z"/>
    <path id="Path_25" data-name="Path 25" class="cls-1" d="M50.934,82.2a1.868,1.868,0,1,1-1.867,1.868A1.867,1.867,0,0,1,50.934,82.2Z"/>
    <path id="Path_26" data-name="Path 26" class="cls-1" d="M1.867,65.768A1.868,1.868,0,1,1,0,67.636,1.867,1.867,0,0,1,1.867,65.768Z"/>
    <path id="Path_27" data-name="Path 27" class="cls-1" d="M18.294,65.768a1.868,1.868,0,1,1-1.867,1.868A1.867,1.867,0,0,1,18.294,65.768Z"/>
    <path id="Path_28" data-name="Path 28" class="cls-1" d="M34.721,65.768a1.868,1.868,0,1,1-1.867,1.868A1.867,1.867,0,0,1,34.721,65.768Z"/>
    <path id="Path_29" data-name="Path 29" class="cls-1" d="M50.934,65.768a1.868,1.868,0,1,1-1.867,1.868A1.867,1.867,0,0,1,50.934,65.768Z"/>
    <path id="Path_30" data-name="Path 30" class="cls-1" d="M1.867,98.265A1.868,1.868,0,1,1,0,100.132,1.867,1.867,0,0,1,1.867,98.265Z"/>
    <path id="Path_31" data-name="Path 31" class="cls-1" d="M1.867,49.333A1.868,1.868,0,1,1,0,51.2,1.867,1.867,0,0,1,1.867,49.333Z"/>
    <path id="Path_32" data-name="Path 32" class="cls-1" d="M18.294,98.265a1.868,1.868,0,1,1-1.867,1.867A1.867,1.867,0,0,1,18.294,98.265Z"/>
    <path id="Path_33" data-name="Path 33" class="cls-1" d="M18.294,49.333A1.868,1.868,0,1,1,16.427,51.2,1.867,1.867,0,0,1,18.294,49.333Z"/>
    <path id="Path_34" data-name="Path 34" class="cls-1" d="M34.721,98.265a1.868,1.868,0,1,1-1.867,1.868A1.867,1.867,0,0,1,34.721,98.265Z"/>
    <path id="Path_35" data-name="Path 35" class="cls-1" d="M50.934,98.265a1.868,1.868,0,1,1-1.867,1.868A1.867,1.867,0,0,1,50.934,98.265Z"/>
    <path id="Path_36" data-name="Path 36" class="cls-1" d="M34.721,49.333A1.868,1.868,0,1,1,32.854,51.2,1.867,1.867,0,0,1,34.721,49.333Z"/>
    <path id="Path_37" data-name="Path 37" class="cls-1" d="M50.934,49.333A1.868,1.868,0,1,1,49.067,51.2,1.867,1.867,0,0,1,50.934,49.333Z"/>
    <path id="Path_38" data-name="Path 38" class="cls-1" d="M66.9,82.2a1.868,1.868,0,1,1-1.867,1.868A1.867,1.867,0,0,1,66.9,82.2Z"/>
    <path id="Path_39" data-name="Path 39" class="cls-1" d="M83.331,82.2a1.868,1.868,0,1,1-1.867,1.868A1.867,1.867,0,0,1,83.331,82.2Z"/>
    <path id="Path_40" data-name="Path 40" class="cls-1" d="M99.758,82.2a1.868,1.868,0,1,1-1.867,1.868A1.867,1.867,0,0,1,99.758,82.2Z"/>
    <path id="Path_41" data-name="Path 41" class="cls-1" d="M66.9,65.768a1.868,1.868,0,1,1-1.867,1.868A1.867,1.867,0,0,1,66.9,65.768Z"/>
    <path id="Path_42" data-name="Path 42" class="cls-1" d="M83.331,65.768a1.868,1.868,0,1,1-1.867,1.868A1.867,1.867,0,0,1,83.331,65.768Z"/>
    <path id="Path_43" data-name="Path 43" class="cls-1" d="M99.758,65.768a1.868,1.868,0,1,1-1.867,1.868A1.867,1.867,0,0,1,99.758,65.768Z"/>
    <path id="Path_44" data-name="Path 44" class="cls-1" d="M66.9,98.265a1.868,1.868,0,1,1-1.867,1.867A1.867,1.867,0,0,1,66.9,98.265Z"/>
    <path id="Path_45" data-name="Path 45" class="cls-1" d="M66.9,49.333A1.868,1.868,0,1,1,65.037,51.2,1.867,1.867,0,0,1,66.9,49.333Z"/>
    <path id="Path_46" data-name="Path 46" class="cls-1" d="M83.331,98.265a1.868,1.868,0,1,1-1.867,1.867A1.867,1.867,0,0,1,83.331,98.265Z"/>
    <path id="Path_47" data-name="Path 47" class="cls-1" d="M83.331,49.333A1.868,1.868,0,1,1,81.464,51.2,1.867,1.867,0,0,1,83.331,49.333Z"/>
    <path id="Path_48" data-name="Path 48" class="cls-1" d="M99.758,98.265a1.868,1.868,0,1,1-1.867,1.867A1.867,1.867,0,0,1,99.758,98.265Z"/>
    <path id="Path_49" data-name="Path 49" class="cls-1" d="M99.758,49.333A1.868,1.868,0,1,1,97.891,51.2,1.867,1.867,0,0,1,99.758,49.333Z"/>
  </g>
</svg>
