<svg xmlns="http://www.w3.org/2000/svg" width="573.658" height="647.517" viewBox="0 0 573.658 647.517">
  <g id="Group_26" data-name="Group 26" transform="translate(-13.342 -43.483)">
    <g id="Group_20" data-name="Group 20" transform="translate(-18.658 202.483)">
      <g id="Group_6" data-name="Group 6" transform="translate(32 122)">
        <g id="Path_42" data-name="Path 42" fill="#fff">
          <path d="M 310.0275573730469 342.9251708984375 L 297.9957885742188 342.9251708984375 L 12.66269016265869 342.9251708984375 L 0.6675412058830261 342.9251708984375 L 0.6892354488372803 14.35904026031494 C 0.6892354488372803 11.53476715087891 2.033280849456787 8.065949440002441 4.196917057037354 5.306221961975098 C 5.32732629776001 3.86440372467041 6.649053573608398 2.670994520187378 8.019189834594727 1.855039954185486 C 9.529007911682129 0.9559036493301392 11.09128093719482 0.4999945461750031 12.66269016265869 0.4999945461750031 L 297.9957885742188 0.4999945461750031 C 304.6922302246094 0.4999945461750031 309.1905517578125 6.442585468292236 309.1905517578125 11.99281311035156 L 310.0275573730469 342.9251708984375 Z" stroke="none"/>
          <path d="M 12.66275024414062 1 C 11.18264770507812 1 9.7064208984375 1.432220458984375 8.275054931640625 2.284637451171875 C 6.957275390625 3.069366455078125 5.683135986328125 4.220916748046875 4.590423583984375 5.614715576171875 C 2.492523193359375 8.290618896484375 1.189239501953125 11.64126586914062 1.189239501953125 14.35903930664062 L 1.16754150390625 342.4251708984375 L 309.5262451171875 342.4251708984375 L 308.6905517578125 11.9927978515625 C 308.6905517578125 6.684051513671875 304.3930969238281 1 297.9957275390625 1 L 12.66275024414062 1 M 12.66275024414062 0 L 297.9957275390625 0 C 304.9891967773438 0 309.6905517578125 6.174713134765625 309.6905517578125 11.9927978515625 L 310.5287780761719 343.4251708984375 C 310.5287780761719 343.4251708984375 304.9891967773438 343.4251708984375 297.9957275390625 343.4251708984375 L 0.167449951171875 343.4251708984375 L 0.189239501953125 14.3590087890625 C 0.189239501953125 8.54095458984375 5.669281005859375 0 12.66275024414062 0 Z" stroke="none" fill="#2f56d3"/>
        </g>
        <path id="Rectangle_3" data-name="Rectangle 3" d="M15,0H295.658a15,15,0,0,1,15,15V56.352a0,0,0,0,1,0,0H0a0,0,0,0,1,0,0V15A15,15,0,0,1,15,0Z" fill="#2f56d3"/>
      </g>
      <g id="Rectangle_7" data-name="Rectangle 7" transform="translate(39.044 368.542)" fill="#fff" stroke="#e7e7e7" stroke-width="1">
        <rect width="297.416" height="75.919" stroke="none"/>
        <rect x="0.5" y="0.5" width="296.416" height="74.919" fill="none"/>
      </g>
      <g id="Rectangle_6" data-name="Rectangle 6" transform="translate(39.044 279.317)" fill="#fff" stroke="#e7e7e7" stroke-width="1">
        <rect width="297.416" height="76.702" stroke="none"/>
        <rect x="0.5" y="0.5" width="296.416" height="75.702" fill="none"/>
      </g>
      <g id="Rectangle_4" data-name="Rectangle 4" transform="translate(39.044 190.875)" fill="#fff" stroke="#e7e7e7" stroke-width="1">
        <rect width="144.012" height="76.702" stroke="none"/>
        <rect x="0.5" y="0.5" width="143.012" height="75.702" fill="none"/>
      </g>
      <g id="Rectangle_5" data-name="Rectangle 5" transform="translate(192.448 190.875)" fill="#fff" stroke="#e7e7e7" stroke-width="1">
        <rect width="144.012" height="76.702" stroke="none"/>
        <rect x="0.5" y="0.5" width="143.012" height="75.702" fill="none"/>
      </g>
    </g>
    <g id="Group_19" data-name="Group 19" transform="translate(4.75 -145.619)">
      <g id="Group_11" data-name="Group 11" transform="translate(19.985 321.19)">
        <line id="Line_3" data-name="Line 3" y1="73.038" x2="180.341" transform="translate(0 2.274)" fill="none" stroke="#1f77b4" stroke-linecap="round" stroke-width="2"/>
        <circle id="Ellipse_7" data-name="Ellipse 7" cx="2.235" cy="2.235" r="2.235" transform="translate(178.475 0)" fill="#1f77b4"/>
      </g>
      <g id="Group_7" data-name="Group 7" transform="translate(19.985 296.614)">
        <line id="Line_1" data-name="Line 1" x1="0.235" y2="105.505" transform="translate(-1.008 -5.008)" fill="none" stroke="#2f56d3" stroke-linecap="round" stroke-width="10"/>
        <path id="Path_43" data-name="Path 43" d="M180.748.971H45.631L-1.008.609" transform="translate(0 99.889)" fill="none" stroke="#2f56d3" stroke-linecap="round" stroke-width="10"/>
      </g>
      <g id="Group_10" data-name="Group 10" transform="translate(18 309.136)">
        <g id="Group_9" data-name="Group 9" transform="translate(0 1.604)">
          <line id="Line_5" data-name="Line 5" y1="85.762" x2="180.341" transform="translate(1.985)" fill="none" stroke="#ff7f0e" stroke-linecap="round" stroke-width="2"/>
          <circle id="Ellipse_5" data-name="Ellipse 5" cx="2.235" cy="2.235" r="2.235" transform="translate(0 83.767)" fill="#ff7f0e"/>
        </g>
        <ellipse id="Ellipse_6" data-name="Ellipse 6" cx="2.235" cy="1.788" rx="2.235" ry="1.788" transform="translate(180.46 0)" fill="#ff7f0e"/>
      </g>
      <g id="Group_16" data-name="Group 16" transform="translate(18 362.204)">
        <g id="Group_8" data-name="Group 8" transform="translate(0 0)">
          <g id="Group_17" data-name="Group 17">
            <path id="Path_38" data-name="Path 38" d="M0,0H180.341" transform="translate(1.985 2.035)" fill="none" stroke="#aec7e8" stroke-linecap="round" stroke-width="2"/>
            <ellipse id="Ellipse_9" data-name="Ellipse 9" cx="2.235" cy="1.788" rx="2.235" ry="1.788" fill="#aec7e8"/>
          </g>
        </g>
        <ellipse id="Ellipse_8" data-name="Ellipse 8" cx="2.235" cy="1.788" rx="2.235" ry="1.788" transform="translate(180.46 0)" fill="#aec7e8"/>
      </g>
    </g>
    <g id="Group_15" data-name="Group 15" transform="translate(-584.533 -830.992)">
      <path id="Path_39" data-name="Path 39" d="M95.276-30.365,97.012,74.293l-61.8,84.034S-26.894,117.1-2.992,42.586,95.276-30.365,95.276-30.365Z" transform="translate(951 1207.058)" fill="#aec7e8"/>
      <path id="Path_40" data-name="Path 40" d="M-52.969,123.309,9.873,38.619,109.327,6.09S135.99,77.874,71.671,123.309-52.969,123.309-52.969,123.309Z" transform="translate(1039.227 1243.264)" fill="#ff7f0e"/>
      <path id="Path_41" data-name="Path 41" d="M-.14,74.784l-98.068,32.14V3.147s36.04,2.079,60.557,19.989S-.14,74.784-.14,74.784Z" transform="translate(1147.673 1173.345)" fill="#1f77b4"/>
    </g>
    <g id="Group_21" data-name="Group 21" transform="translate(258 47.82)">
      <g id="Rectangle_2" data-name="Rectangle 2" transform="translate(14 83.18)" fill="none" stroke="#e7e7e7" stroke-width="1">
        <rect width="305" height="117" rx="15" stroke="none"/>
        <rect x="0.5" y="0.5" width="304" height="116" rx="14.5" fill="none"/>
      </g>
    </g>
    <g id="Group_22" data-name="Group 22" transform="translate(272 60.963)">
      <rect id="Rectangle_2-2" data-name="Rectangle 2" width="129" height="84" rx="15" transform="translate(14 83.037)" fill="#e9eeff"/>
    </g>
    <g id="Group_23" data-name="Group 23" transform="translate(415.5 60.963)">
      <rect id="Rectangle_2-3" data-name="Rectangle 2" width="136" height="84" rx="15" transform="translate(13.5 83.037)" fill="#e9eeff"/>
    </g>
    <text id="Total_Today_Booking" data-name="Total Today Booking" transform="translate(295 166)" fill="#2f56d3" font-size="11" font-family="LexendDeca-Medium, Lexend Deca" font-weight="500"><tspan x="0" y="0">Total Today Booking</tspan></text>
    <text id="_0" data-name="0" transform="translate(344 194)" fill="#2f56d3" font-size="22" font-family="LexendDeca-Medium, Lexend Deca" font-weight="500"><tspan x="0" y="0">0</tspan></text>
    <g id="Group_24" data-name="Group 24" transform="translate(310.126 121.104)">
      <rect id="Rectangle_2-4" data-name="Rectangle 2" width="49" height="17" rx="2" transform="translate(13.874 83.896)" fill="#2f56d3"/>
    </g>
    <text id="Total_Available_Ticket" data-name="Total Available Ticket" transform="translate(439 166)" fill="#2f56d3" font-size="11" font-family="LexendDeca-Medium, Lexend Deca" font-weight="500"><tspan x="0" y="0">Total Available Ticket</tspan></text>
    <text id="_0-2" data-name="0" transform="translate(490 194)" fill="#2f56d3" font-size="22" font-family="LexendDeca-Medium, Lexend Deca" font-weight="500"><tspan x="0" y="0">0</tspan></text>
    <g id="Group_25" data-name="Group 25" transform="translate(461.064 121.104)">
      <rect id="Rectangle_2-5" data-name="Rectangle 2" width="45" height="17" rx="2" transform="translate(13.936 83.896)" fill="#2f56d3"/>
    </g>
    <text id="New_Booking" data-name="New Booking" transform="translate(329 216)" fill="#fff" font-size="6" font-family="LexendDeca-Medium, Lexend Deca" font-weight="500"><tspan x="0" y="0">New Booking</tspan></text>
    <text id="New_Ticket" data-name="New Ticket" transform="translate(481 216)" fill="#fff" font-size="6" font-family="LexendDeca-Medium, Lexend Deca" font-weight="500"><tspan x="0" y="0">New Ticket</tspan></text>
    <rect id="Rectangle_8" data-name="Rectangle 8" width="563.658" height="56.352" rx="16" transform="translate(13.342 43.483)" fill="#2f56d3"/>
    <text id="Ticketbos" transform="translate(23 80)" fill="#fff" font-size="23" font-family="LexendDeca-Medium, Lexend Deca" font-weight="500"><tspan x="0" y="0">Ticketbos</tspan></text>
    <g id="shape-2" transform="translate(499.939 603.572)">
      <path id="Path_1" data-name="Path 1" d="M1.6,33.2A1.6,1.6,0,1,1,0,34.8a1.6,1.6,0,0,1,1.6-1.6Z" transform="translate(0 -4.712)" fill="#2f56d3"/>
      <path id="Path_2" data-name="Path 2" d="M18.026,33.2a1.6,1.6,0,1,1-1.6,1.6A1.6,1.6,0,0,1,18.026,33.2Z" transform="translate(-2.354 -4.712)" fill="#2f56d3"/>
      <path id="Path_3" data-name="Path 3" d="M34.453,33.2a1.6,1.6,0,1,1-1.6,1.6A1.6,1.6,0,0,1,34.453,33.2Z" transform="translate(-4.709 -4.712)" fill="#2f56d3"/>
      <path id="Path_4" data-name="Path 4" d="M50.666,33.2a1.6,1.6,0,1,1-1.6,1.6,1.6,1.6,0,0,1,1.6-1.6Z" transform="translate(-7.033 -4.712)" fill="#2f56d3"/>
      <path id="Path_5" data-name="Path 5" d="M1.6,16.761a1.6,1.6,0,1,1-1.6,1.6,1.6,1.6,0,0,1,1.6-1.6Z" transform="translate(0 -2.356)" fill="#2f56d3"/>
      <path id="Path_6" data-name="Path 6" d="M18.026,16.761a1.6,1.6,0,1,1-1.6,1.6,1.6,1.6,0,0,1,1.6-1.6Z" transform="translate(-2.354 -2.356)" fill="#2f56d3"/>
      <path id="Path_7" data-name="Path 7" d="M34.453,16.761a1.6,1.6,0,1,1-1.6,1.6A1.6,1.6,0,0,1,34.453,16.761Z" transform="translate(-4.709 -2.356)" fill="#2f56d3"/>
      <path id="Path_8" data-name="Path 8" d="M50.666,16.761a1.6,1.6,0,1,1-1.6,1.6,1.6,1.6,0,0,1,1.6-1.6Z" transform="translate(-7.033 -2.356)" fill="#2f56d3"/>
      <path id="Path_9" data-name="Path 9" d="M1.6.325A1.6,1.6,0,1,1,0,1.925,1.6,1.6,0,0,1,1.6.325Z" transform="translate(0)" fill="#2f56d3"/>
      <path id="Path_10" data-name="Path 10" d="M18.026.325a1.6,1.6,0,1,1-1.6,1.6,1.6,1.6,0,0,1,1.6-1.6Z" transform="translate(-2.354)" fill="#2f56d3"/>
      <path id="Path_11" data-name="Path 11" d="M34.453.326a1.6,1.6,0,1,1-1.6,1.6,1.6,1.6,0,0,1,1.6-1.6Z" transform="translate(-4.709 0)" fill="#2f56d3"/>
      <path id="Path_12" data-name="Path 12" d="M50.666.326a1.6,1.6,0,1,1-1.6,1.6,1.6,1.6,0,0,1,1.6-1.6Z" transform="translate(-7.033 0)" fill="#2f56d3"/>
      <path id="Path_13" data-name="Path 13" d="M66.632,33.2a1.6,1.6,0,1,1-1.6,1.6A1.6,1.6,0,0,1,66.632,33.2Z" transform="translate(-9.321 -4.712)" fill="#2f56d3"/>
      <path id="Path_14" data-name="Path 14" d="M83.063,33.2a1.6,1.6,0,1,1-1.6,1.6A1.6,1.6,0,0,1,83.063,33.2Z" transform="translate(-11.676 -4.712)" fill="#2f56d3"/>
      <path id="Path_15" data-name="Path 15" d="M99.49,33.2a1.6,1.6,0,1,1-1.6,1.6,1.6,1.6,0,0,1,1.6-1.6Z" transform="translate(-14.03 -4.712)" fill="#2f56d3"/>
      <path id="Path_16" data-name="Path 16" d="M66.632,16.761a1.6,1.6,0,1,1-1.6,1.6A1.6,1.6,0,0,1,66.632,16.761Z" transform="translate(-9.321 -2.356)" fill="#2f56d3"/>
      <path id="Path_17" data-name="Path 17" d="M83.063,16.761a1.6,1.6,0,1,1-1.6,1.6A1.6,1.6,0,0,1,83.063,16.761Z" transform="translate(-11.676 -2.356)" fill="#2f56d3"/>
      <path id="Path_18" data-name="Path 18" d="M99.49,16.761a1.6,1.6,0,1,1-1.6,1.6A1.6,1.6,0,0,1,99.49,16.761Z" transform="translate(-14.03 -2.356)" fill="#2f56d3"/>
      <path id="Path_19" data-name="Path 19" d="M66.632.325a1.6,1.6,0,1,1-1.6,1.6,1.6,1.6,0,0,1,1.6-1.6Z" transform="translate(-9.321)" fill="#2f56d3"/>
      <path id="Path_20" data-name="Path 20" d="M83.063.325a1.6,1.6,0,1,1-1.6,1.6,1.6,1.6,0,0,1,1.6-1.6Z" transform="translate(-11.676)" fill="#2f56d3"/>
      <path id="Path_21" data-name="Path 21" d="M99.49.325a1.6,1.6,0,1,1-1.6,1.6,1.6,1.6,0,0,1,1.6-1.6Z" transform="translate(-14.03)" fill="#2f56d3"/>
      <path id="Path_22" data-name="Path 22" d="M1.6,82.2a1.6,1.6,0,1,1-1.132.47A1.6,1.6,0,0,1,1.6,82.2Z" transform="translate(0 -11.735)" fill="#2f56d3"/>
      <path id="Path_23" data-name="Path 23" d="M18.026,82.2a1.6,1.6,0,1,1-1.6,1.6,1.6,1.6,0,0,1,1.6-1.6Z" transform="translate(-2.354 -11.735)" fill="#2f56d3"/>
      <path id="Path_24" data-name="Path 24" d="M34.453,82.2a1.6,1.6,0,1,1-1.6,1.6,1.6,1.6,0,0,1,1.6-1.6Z" transform="translate(-4.709 -11.735)" fill="#2f56d3"/>
      <path id="Path_25" data-name="Path 25" d="M50.666,82.2a1.6,1.6,0,1,1-1.6,1.6,1.6,1.6,0,0,1,1.6-1.6Z" transform="translate(-7.033 -11.735)" fill="#2f56d3"/>
      <path id="Path_26" data-name="Path 26" d="M1.6,65.768a1.6,1.6,0,1,1-1.6,1.6A1.6,1.6,0,0,1,1.6,65.768Z" transform="translate(0 -9.38)" fill="#2f56d3"/>
      <path id="Path_27" data-name="Path 27" d="M18.026,65.768a1.6,1.6,0,1,1-1.6,1.6A1.6,1.6,0,0,1,18.026,65.768Z" transform="translate(-2.354 -9.38)" fill="#2f56d3"/>
      <path id="Path_28" data-name="Path 28" d="M34.453,65.768a1.6,1.6,0,1,1-1.6,1.6A1.6,1.6,0,0,1,34.453,65.768Z" transform="translate(-4.709 -9.38)" fill="#2f56d3"/>
      <path id="Path_29" data-name="Path 29" d="M50.666,65.768a1.6,1.6,0,1,1-1.6,1.6,1.6,1.6,0,0,1,1.6-1.6Z" transform="translate(-7.033 -9.38)" fill="#2f56d3"/>
      <path id="Path_30" data-name="Path 30" d="M1.6,98.265a1.6,1.6,0,1,1-1.6,1.6,1.6,1.6,0,0,1,1.6-1.6Z" transform="translate(0 -14.037)" fill="#2f56d3"/>
      <path id="Path_31" data-name="Path 31" d="M1.6,49.333a1.6,1.6,0,1,1-1.6,1.6,1.6,1.6,0,0,1,1.6-1.6Z" transform="translate(0 -7.024)" fill="#2f56d3"/>
      <path id="Path_32" data-name="Path 32" d="M18.026,98.265a1.6,1.6,0,1,1-1.6,1.6,1.6,1.6,0,0,1,1.6-1.6Z" transform="translate(-2.354 -14.037)" fill="#2f56d3"/>
      <path id="Path_33" data-name="Path 33" d="M18.026,49.333a1.6,1.6,0,1,1-1.6,1.6,1.6,1.6,0,0,1,1.6-1.6Z" transform="translate(-2.354 -7.024)" fill="#2f56d3"/>
      <path id="Path_34" data-name="Path 34" d="M34.453,98.265a1.6,1.6,0,1,1-1.6,1.6,1.6,1.6,0,0,1,1.6-1.6Z" transform="translate(-4.709 -14.037)" fill="#2f56d3"/>
      <path id="Path_35" data-name="Path 35" d="M50.666,98.265a1.6,1.6,0,1,1-1.6,1.6,1.6,1.6,0,0,1,1.6-1.6Z" transform="translate(-7.033 -14.037)" fill="#2f56d3"/>
      <path id="Path_36" data-name="Path 36" d="M34.453,49.333a1.6,1.6,0,1,1-1.6,1.6,1.6,1.6,0,0,1,1.6-1.6Z" transform="translate(-4.709 -7.024)" fill="#2f56d3"/>
      <path id="Path_37" data-name="Path 37" d="M50.666,49.333a1.6,1.6,0,1,1-1.6,1.6,1.6,1.6,0,0,1,1.6-1.6Z" transform="translate(-7.033 -7.024)" fill="#2f56d3"/>
      <path id="Path_38-2" data-name="Path 38" d="M66.632,82.2a1.6,1.6,0,1,1-1.6,1.6,1.6,1.6,0,0,1,1.6-1.6Z" transform="translate(-9.321 -11.735)" fill="#2f56d3"/>
      <path id="Path_39-2" data-name="Path 39" d="M83.063,82.2a1.6,1.6,0,1,1-1.6,1.6,1.6,1.6,0,0,1,1.6-1.6Z" transform="translate(-11.676 -11.735)" fill="#2f56d3"/>
      <path id="Path_40-2" data-name="Path 40" d="M99.49,82.2a1.6,1.6,0,1,1-1.6,1.6,1.6,1.6,0,0,1,1.6-1.6Z" transform="translate(-14.03 -11.735)" fill="#2f56d3"/>
      <path id="Path_41-2" data-name="Path 41" d="M66.632,65.768a1.6,1.6,0,1,1-1.6,1.6A1.6,1.6,0,0,1,66.632,65.768Z" transform="translate(-9.321 -9.38)" fill="#2f56d3"/>
      <path id="Path_42-2" data-name="Path 42" d="M83.063,65.768a1.6,1.6,0,1,1-1.6,1.6A1.6,1.6,0,0,1,83.063,65.768Z" transform="translate(-11.676 -9.38)" fill="#2f56d3"/>
      <path id="Path_43-2" data-name="Path 43" d="M99.49,65.768a1.6,1.6,0,1,1-1.6,1.6A1.6,1.6,0,0,1,99.49,65.768Z" transform="translate(-14.03 -9.38)" fill="#2f56d3"/>
      <path id="Path_44" data-name="Path 44" d="M66.632,98.265a1.6,1.6,0,1,1-1.6,1.6,1.6,1.6,0,0,1,1.6-1.6Z" transform="translate(-9.321 -14.037)" fill="#2f56d3"/>
      <path id="Path_45" data-name="Path 45" d="M66.633,49.333a1.6,1.6,0,1,1-1.6,1.6A1.6,1.6,0,0,1,66.633,49.333Z" transform="translate(-9.321 -7.024)" fill="#2f56d3"/>
      <path id="Path_46" data-name="Path 46" d="M83.063,98.265a1.6,1.6,0,1,1-1.6,1.6,1.6,1.6,0,0,1,1.6-1.6Z" transform="translate(-11.676 -14.037)" fill="#2f56d3"/>
      <path id="Path_47" data-name="Path 47" d="M83.063,49.333a1.6,1.6,0,1,1-1.6,1.6,1.6,1.6,0,0,1,1.6-1.6Z" transform="translate(-11.676 -7.024)" fill="#2f56d3"/>
      <path id="Path_48" data-name="Path 48" d="M99.49,98.265a1.6,1.6,0,1,1-1.6,1.6,1.6,1.6,0,0,1,1.6-1.6Z" transform="translate(-14.03 -14.037)" fill="#2f56d3"/>
      <path id="Path_49" data-name="Path 49" d="M99.49,49.333a1.6,1.6,0,1,1-1.6,1.6,1.6,1.6,0,0,1,1.6-1.6Z" transform="translate(-14.03 -7.024)" fill="#2f56d3"/>
    </g>
  </g>
</svg>
