<svg xmlns="http://www.w3.org/2000/svg" width="603" height="700.105" viewBox="0 0 603 700.105">
  <defs>
    <style>
      .cls-1 {
        fill: #2f56d3;
      }

      .cls-2 {
        fill: #aec7e8;
      }

      .cls-3 {
        fill: #ff7f0e;
      }

      .cls-4 {
        fill: #1f77b4;
      }

      .cls-10, .cls-11, .cls-5, .cls-8, .cls-9 {
        fill: #fff;
      }

      .cls-20, .cls-5 {
        stroke: #d0d0d0;
      }

      .cls-12, .cls-13, .cls-6, .cls-7 {
        fill: #212529;
      }

      .cls-6 {
        font-size: 14px;
      }

      .cls-12, .cls-13, .cls-17, .cls-6, .cls-7 {
        font-family: Arial-BoldMT, Arial;
        font-weight: 700;
      }

      .cls-7 {
        font-size: 22px;
      }

      .cls-12, .cls-17, .cls-19, .cls-8 {
        font-size: 8px;
      }

      .cls-10, .cls-18, .cls-19, .cls-8, .cls-9 {
        font-family: ArialMT, Arial;
      }

      .cls-9 {
        font-size: 16px;
      }

      .cls-10, .cls-13 {
        font-size: 10px;
      }

      .cls-14 {
        fill: #36b08b;
      }

      .cls-15, .cls-16, .cls-20, .cls-21, .cls-22, .cls-23, .cls-25 {
        fill: none;
      }

      .cls-15 {
        stroke: #707070;
      }

      .cls-16 {
        stroke: #e7e7e7;
      }

      .cls-17, .cls-18 {
        fill: #646c75;
      }

      .cls-18 {
        font-size: 9px;
      }

      .cls-19 {
        fill: #5f5f5f;
      }

      .cls-21 {
        stroke: #1f77b4;
      }

      .cls-21, .cls-22, .cls-23 {
        stroke-width: 2px;
      }

      .cls-22 {
        stroke: #ff7f0e;
      }

      .cls-23 {
        stroke: #aec7e8;
      }

      .cls-24 {
        stroke: none;
      }
    </style>
  </defs>
  <g id="Group_40" data-name="Group 40" transform="translate(-15 -23.39)">
    <path id="Path_42" data-name="Path 42" class="cls-1" d="M10.169,0H556.224a10.169,10.169,0,0,1,10.169,10.169V39.658a10.169,10.169,0,0,1-10.169,10.169H10.169A10.169,10.169,0,0,1,0,39.658V10.169A10.169,10.169,0,0,1,10.169,0Z" transform="translate(15 23.39)"/>
    <g id="shape-2" transform="translate(473.605 561.528)">
      <path id="Path_1" data-name="Path 1" class="cls-1" d="M2.653,33.2A2.654,2.654,0,1,1,0,35.847,2.654,2.654,0,0,1,2.653,33.2Z" transform="translate(0 19.385)"/>
      <path id="Path_2" data-name="Path 2" class="cls-1" d="M19.08,33.2a2.654,2.654,0,1,1-2.653,2.654A2.654,2.654,0,0,1,19.08,33.2Z" transform="translate(6.913 19.385)"/>
      <path id="Path_3" data-name="Path 3" class="cls-1" d="M35.507,33.2a2.654,2.654,0,1,1-2.653,2.654A2.654,2.654,0,0,1,35.507,33.2Z" transform="translate(13.826 19.385)"/>
      <path id="Path_4" data-name="Path 4" class="cls-1" d="M51.72,33.2a2.654,2.654,0,1,1-2.653,2.654A2.654,2.654,0,0,1,51.72,33.2Z" transform="translate(20.649 19.385)"/>
      <path id="Path_5" data-name="Path 5" class="cls-1" d="M2.653,16.761A2.654,2.654,0,1,1,0,19.414a2.654,2.654,0,0,1,2.653-2.653Z" transform="translate(0 6.592)"/>
      <path id="Path_6" data-name="Path 6" class="cls-1" d="M19.08,16.761a2.654,2.654,0,1,1-2.653,2.654,2.654,2.654,0,0,1,2.653-2.654Z" transform="translate(6.913 6.592)"/>
      <path id="Path_7" data-name="Path 7" class="cls-1" d="M35.507,16.761a2.654,2.654,0,1,1-2.653,2.654A2.654,2.654,0,0,1,35.507,16.761Z" transform="translate(13.826 6.592)"/>
      <path id="Path_8" data-name="Path 8" class="cls-1" d="M51.72,16.761a2.654,2.654,0,1,1-2.653,2.654,2.654,2.654,0,0,1,2.653-2.654Z" transform="translate(20.649 6.592)"/>
      <path id="Path_9" data-name="Path 9" class="cls-1" d="M2.653.325A2.654,2.654,0,1,1,0,2.979,2.654,2.654,0,0,1,2.653.325Z" transform="translate(0 -0.325)"/>
      <path id="Path_10" data-name="Path 10" class="cls-1" d="M19.08.325a2.654,2.654,0,1,1-2.653,2.654A2.654,2.654,0,0,1,19.08.325Z" transform="translate(6.913 -0.325)"/>
      <path id="Path_11" data-name="Path 11" class="cls-1" d="M35.507.326A2.654,2.654,0,1,1,32.854,2.98,2.654,2.654,0,0,1,35.507.326Z" transform="translate(13.826 -0.325)"/>
      <path id="Path_12" data-name="Path 12" class="cls-1" d="M51.72.326A2.654,2.654,0,1,1,49.067,2.98,2.654,2.654,0,0,1,51.72.326Z" transform="translate(20.649 -0.325)"/>
      <path id="Path_13" data-name="Path 13" class="cls-1" d="M67.686,33.2a2.654,2.654,0,1,1-2.653,2.654A2.654,2.654,0,0,1,67.686,33.2Z" transform="translate(27.368 19.385)"/>
      <path id="Path_14" data-name="Path 14" class="cls-1" d="M84.117,33.2a2.654,2.654,0,1,1-2.653,2.654A2.654,2.654,0,0,1,84.117,33.2Z" transform="translate(34.282 19.385)"/>
      <path id="Path_15" data-name="Path 15" class="cls-1" d="M100.544,33.2a2.654,2.654,0,1,1-2.653,2.654,2.654,2.654,0,0,1,2.653-2.654Z" transform="translate(41.195 19.385)"/>
      <path id="Path_16" data-name="Path 16" class="cls-1" d="M67.686,16.761a2.654,2.654,0,1,1-2.653,2.654A2.654,2.654,0,0,1,67.686,16.761Z" transform="translate(27.368 6.592)"/>
      <path id="Path_17" data-name="Path 17" class="cls-1" d="M84.117,16.761a2.654,2.654,0,1,1-2.653,2.654A2.654,2.654,0,0,1,84.117,16.761Z" transform="translate(34.282 6.592)"/>
      <path id="Path_18" data-name="Path 18" class="cls-1" d="M100.544,16.761a2.654,2.654,0,1,1-2.653,2.654A2.654,2.654,0,0,1,100.544,16.761Z" transform="translate(41.195 6.592)"/>
      <path id="Path_19" data-name="Path 19" class="cls-1" d="M67.686.325a2.654,2.654,0,1,1-2.653,2.654A2.654,2.654,0,0,1,67.686.325Z" transform="translate(27.368 -0.325)"/>
      <path id="Path_20" data-name="Path 20" class="cls-1" d="M84.117.325a2.654,2.654,0,1,1-2.653,2.654A2.654,2.654,0,0,1,84.117.325Z" transform="translate(34.282 -0.325)"/>
      <path id="Path_21" data-name="Path 21" class="cls-1" d="M100.544.325a2.654,2.654,0,1,1-2.653,2.654A2.654,2.654,0,0,1,100.544.325Z" transform="translate(41.195 -0.325)"/>
      <path id="Path_22" data-name="Path 22" class="cls-1" d="M2.653,82.2a2.653,2.653,0,1,1-1.878.779A2.654,2.654,0,0,1,2.653,82.2Z" transform="translate(0 51.633)"/>
      <path id="Path_23" data-name="Path 23" class="cls-1" d="M19.08,82.2a2.654,2.654,0,1,1-2.653,2.654A2.654,2.654,0,0,1,19.08,82.2Z" transform="translate(6.913 51.633)"/>
      <path id="Path_24" data-name="Path 24" class="cls-1" d="M35.507,82.2a2.654,2.654,0,1,1-2.653,2.654A2.654,2.654,0,0,1,35.507,82.2Z" transform="translate(13.826 51.633)"/>
      <path id="Path_25" data-name="Path 25" class="cls-1" d="M51.72,82.2a2.654,2.654,0,1,1-2.653,2.654A2.654,2.654,0,0,1,51.72,82.2Z" transform="translate(20.649 51.633)"/>
      <path id="Path_26" data-name="Path 26" class="cls-1" d="M2.653,65.768A2.654,2.654,0,1,1,0,68.422,2.654,2.654,0,0,1,2.653,65.768Z" transform="translate(0 38.91)"/>
      <path id="Path_27" data-name="Path 27" class="cls-1" d="M19.08,65.768a2.654,2.654,0,1,1-2.653,2.654A2.654,2.654,0,0,1,19.08,65.768Z" transform="translate(6.913 38.91)"/>
      <path id="Path_28" data-name="Path 28" class="cls-1" d="M35.507,65.768a2.654,2.654,0,1,1-2.653,2.654A2.654,2.654,0,0,1,35.507,65.768Z" transform="translate(13.826 38.91)"/>
      <path id="Path_29" data-name="Path 29" class="cls-1" d="M51.72,65.768a2.654,2.654,0,1,1-2.653,2.654,2.654,2.654,0,0,1,2.653-2.654Z" transform="translate(20.649 38.91)"/>
      <path id="Path_30" data-name="Path 30" class="cls-1" d="M2.653,98.265A2.654,2.654,0,1,1,0,100.918a2.654,2.654,0,0,1,2.653-2.653Z" transform="translate(0 58.393)"/>
      <path id="Path_31" data-name="Path 31" class="cls-1" d="M2.653,49.333A2.654,2.654,0,1,1,0,51.986a2.654,2.654,0,0,1,2.653-2.653Z" transform="translate(0 29.057)"/>
      <path id="Path_32" data-name="Path 32" class="cls-1" d="M19.08,98.265a2.654,2.654,0,1,1-2.653,2.653,2.654,2.654,0,0,1,2.653-2.653Z" transform="translate(6.913 58.393)"/>
      <path id="Path_33" data-name="Path 33" class="cls-1" d="M19.08,49.333a2.654,2.654,0,1,1-2.653,2.653,2.654,2.654,0,0,1,2.653-2.653Z" transform="translate(6.913 29.057)"/>
      <path id="Path_34" data-name="Path 34" class="cls-1" d="M35.507,98.265a2.654,2.654,0,1,1-2.653,2.654,2.654,2.654,0,0,1,2.653-2.654Z" transform="translate(13.826 58.393)"/>
      <path id="Path_35" data-name="Path 35" class="cls-1" d="M51.72,98.265a2.654,2.654,0,1,1-2.653,2.654,2.654,2.654,0,0,1,2.653-2.654Z" transform="translate(20.649 58.393)"/>
      <path id="Path_36" data-name="Path 36" class="cls-1" d="M35.507,49.333a2.654,2.654,0,1,1-2.653,2.653,2.654,2.654,0,0,1,2.653-2.653Z" transform="translate(13.826 29.057)"/>
      <path id="Path_37" data-name="Path 37" class="cls-1" d="M51.72,49.333a2.654,2.654,0,1,1-2.653,2.653,2.654,2.654,0,0,1,2.653-2.653Z" transform="translate(20.649 29.057)"/>
      <path id="Path_38" data-name="Path 38" class="cls-1" d="M67.686,82.2a2.654,2.654,0,1,1-2.653,2.654A2.654,2.654,0,0,1,67.686,82.2Z" transform="translate(27.368 51.633)"/>
      <path id="Path_39" data-name="Path 39" class="cls-1" d="M84.117,82.2a2.654,2.654,0,1,1-2.653,2.654A2.654,2.654,0,0,1,84.117,82.2Z" transform="translate(34.282 51.633)"/>
      <path id="Path_40" data-name="Path 40" class="cls-1" d="M100.544,82.2a2.654,2.654,0,1,1-2.653,2.654,2.654,2.654,0,0,1,2.653-2.654Z" transform="translate(41.195 51.633)"/>
      <path id="Path_41" data-name="Path 41" class="cls-1" d="M67.686,65.768a2.654,2.654,0,1,1-2.653,2.654A2.654,2.654,0,0,1,67.686,65.768Z" transform="translate(27.368 38.91)"/>
      <path id="Path_42-2" data-name="Path 42" class="cls-1" d="M84.117,65.768a2.654,2.654,0,1,1-2.653,2.654A2.654,2.654,0,0,1,84.117,65.768Z" transform="translate(34.282 38.91)"/>
      <path id="Path_43" data-name="Path 43" class="cls-1" d="M100.544,65.768a2.654,2.654,0,1,1-2.653,2.654A2.654,2.654,0,0,1,100.544,65.768Z" transform="translate(41.195 38.91)"/>
      <path id="Path_44" data-name="Path 44" class="cls-1" d="M67.686,98.265a2.654,2.654,0,1,1-2.653,2.653,2.654,2.654,0,0,1,2.653-2.653Z" transform="translate(27.368 58.393)"/>
      <path id="Path_45" data-name="Path 45" class="cls-1" d="M67.684,49.333a2.654,2.654,0,1,1-2.647,2.653A2.654,2.654,0,0,1,67.684,49.333Z" transform="translate(27.369 29.057)"/>
      <path id="Path_46" data-name="Path 46" class="cls-1" d="M84.117,98.265a2.654,2.654,0,1,1-2.653,2.653,2.654,2.654,0,0,1,2.653-2.653Z" transform="translate(34.282 58.393)"/>
      <path id="Path_47" data-name="Path 47" class="cls-1" d="M84.117,49.333a2.654,2.654,0,1,1-2.653,2.653,2.654,2.654,0,0,1,2.653-2.653Z" transform="translate(34.282 29.057)"/>
      <path id="Path_48" data-name="Path 48" class="cls-1" d="M100.544,98.265a2.654,2.654,0,1,1-2.653,2.653,2.654,2.654,0,0,1,2.653-2.653Z" transform="translate(41.195 58.393)"/>
      <path id="Path_49" data-name="Path 49" class="cls-1" d="M100.544,49.333a2.654,2.654,0,1,1-2.653,2.653,2.654,2.654,0,0,1,2.653-2.653Z" transform="translate(41.195 29.057)"/>
    </g>
    <g id="Group_15" data-name="Group 15" transform="translate(376.495 525.035)">
      <path id="Path_39-2" data-name="Path 39" class="cls-2" d="M57.372-30.366l1.1,66.42L19.255,89.385S-20.162,63.224-4.993,15.932,57.372-30.366,57.372-30.366Z" transform="translate(8.467 30.709)"/>
      <path id="Path_40-2" data-name="Path 40" class="cls-3" d="M-52.969,80.482l39.882-53.747L50.03,6.09s16.922,45.557-23.9,74.391S-52.969,80.482-52.969,80.482Z" transform="translate(80.719 40.367)"/>
      <path id="Path_41-2" data-name="Path 41" class="cls-4" d="M-36.576,48.486l-62.238,20.4L-99.866,2.807s23.924,1.535,39.483,12.9S-36.576,48.486-36.576,48.486Z" transform="translate(166.677 -2.807)"/>
    </g>
    <g id="Group_22" data-name="Group 22" transform="translate(15 89.486)">
      <g id="Rectangle_2" data-name="Rectangle 2" class="cls-5" transform="translate(0 -0.486)">
        <rect class="cls-24" width="276" height="124" rx="10"/>
        <rect class="cls-25" x="0.5" y="0.5" width="275" height="123" rx="9.5"/>
      </g>
    </g>
    <text id="Total_Today_Booking" data-name="Total Today Booking" class="cls-6" transform="translate(83 123)"><tspan x="0" y="0">Total Today Booking</tspan></text>
    <text id="_6" data-name="6" class="cls-7" transform="translate(147 158)"><tspan x="0" y="0">6</tspan></text>
    <g id="Group_28" data-name="Group 28" transform="translate(117.703 176.936)">
      <g id="Group_24" data-name="Group 24" transform="translate(0)">
        <rect id="Rectangle_2-2" data-name="Rectangle 2" class="cls-1" width="69" height="21" rx="1" transform="translate(0.297 0.064)"/>
      </g>
      <text id="New_Booking" data-name="New Booking" class="cls-8" transform="translate(8.297 14.064)"><tspan x="0" y="0">New Booking</tspan></text>
    </g>
    <text id="TicketBos" class="cls-9" transform="translate(49 54)"><tspan x="0" y="0">TicketBos</tspan></text>
    <text id="Dashboard" class="cls-10" transform="translate(142 53)"><tspan x="0" y="0">Dashboard</tspan></text>
    <g id="Group_26" data-name="Group 26" transform="translate(25.169 40.676)">
      <rect id="Rectangle_11" data-name="Rectangle 11" class="cls-11" width="7" height="7" rx="1" transform="translate(-0.169 8.324)"/>
      <rect id="Rectangle_13" data-name="Rectangle 13" class="cls-11" width="7" height="7" rx="1" transform="translate(-0.169 0.324)"/>
      <rect id="Rectangle_14" data-name="Rectangle 14" class="cls-11" width="7" height="7" rx="1" transform="translate(7.831 0.324)"/>
      <rect id="Rectangle_15" data-name="Rectangle 15" class="cls-11" width="7" height="7" rx="1" transform="translate(7.831 8.324)"/>
    </g>
    <text id="Total_Today_Booking-2" data-name="Total Today Booking" class="cls-6" transform="translate(387 127)"><tspan x="0" y="0">Total Today Booking</tspan></text>
    <g id="Group_29" data-name="Group 29" transform="translate(421.745 176.936)">
      <g id="Group_24-2" data-name="Group 24" transform="translate(0)">
        <rect id="Rectangle_2-3" data-name="Rectangle 2" class="cls-1" width="69" height="21" rx="1" transform="translate(0.255 0.064)"/>
      </g>
      <text id="New_Ticket" data-name="New Ticket" class="cls-8" transform="translate(15.255 13.064)"><tspan x="0" y="0">New Ticket</tspan></text>
    </g>
    <text id="Total_Booking_by_Ticket_for_the_past_30_Days" data-name="Total Booking by Ticket for the past 30 Days" class="cls-12" transform="translate(313 486)"><tspan x="0" y="0">Total Booking by Ticket for the past 30 Days</tspan></text>
    <text id="Total_Booking_for_the_past_14_Days" data-name="Total Booking for the past 14 Days" class="cls-12" transform="translate(25 486)"><tspan x="0" y="0">Total Booking for the past 14 Days</tspan></text>
    <text id="_24" data-name="24" class="cls-7" transform="translate(434 142)"><tspan x="0" y="0">24</tspan></text>
    <g id="Group_32" data-name="Group 32" transform="translate(305.823 465.725)">
      <g id="Rectangle_2-4" data-name="Rectangle 2" class="cls-5" transform="translate(0.177 0.275)">
        <rect class="cls-24" width="275" height="228" rx="11"/>
        <rect class="cls-25" x="0.5" y="0.5" width="274" height="227" rx="10.5"/>
      </g>
    </g>
    <g id="Group_27" data-name="Group 27" transform="translate(305.823 89.486)">
      <g id="Rectangle_2-5" data-name="Rectangle 2" class="cls-5" transform="translate(0.177 -0.486)">
        <rect class="cls-24" width="275" height="124" rx="10"/>
        <rect class="cls-25" x="0.5" y="0.5" width="274" height="123" rx="9.5"/>
      </g>
    </g>
    <g id="Group_15-2" data-name="Group 15" transform="translate(376.495 525.035)">
      <path id="Path_39-3" data-name="Path 39" class="cls-2" d="M57.372-30.366l1.1,66.42L19.255,89.385S-20.162,63.224-4.993,15.932,57.372-30.366,57.372-30.366Z" transform="translate(8.467 30.709)"/>
      <path id="Path_40-3" data-name="Path 40" class="cls-3" d="M-52.969,80.482l39.882-53.747L50.03,6.09s16.922,45.557-23.9,74.391S-52.969,80.482-52.969,80.482Z" transform="translate(80.719 40.367)"/>
      <path id="Path_41-3" data-name="Path 41" class="cls-4" d="M-36.576,48.486l-62.238,20.4L-99.866,2.807s23.924,1.535,39.483,12.9S-36.576,48.486-36.576,48.486Z" transform="translate(166.677 -2.807)"/>
    </g>
    <text id="Total_Available_Ticket" data-name="Total Available Ticket" class="cls-6" transform="translate(372 122)"><tspan x="0" y="0">Total Available Ticket</tspan></text>
    <g id="Group_29-2" data-name="Group 29" transform="translate(409.543 176.936)">
      <g id="Group_33" data-name="Group 33" transform="translate(0)">
        <g id="Group_24-3" data-name="Group 24" transform="translate(0)">
          <rect id="Rectangle_2-6" data-name="Rectangle 2" class="cls-1" width="69" height="21" rx="1" transform="translate(0.457 0.064)"/>
        </g>
        <text id="New_Ticket-2" data-name="New Ticket" class="cls-8" transform="translate(15.457 13.064)"><tspan x="0" y="0">New Ticket</tspan></text>
      </g>
    </g>
    <g id="Group_30" data-name="Group 30" transform="translate(15 232.863)">
      <g id="Rectangle_2-7" data-name="Rectangle 2" class="cls-5" transform="translate(0 0.137)">
        <rect class="cls-24" width="566" height="222" rx="10"/>
        <rect class="cls-25" x="0.5" y="0.5" width="565" height="221" rx="9.5"/>
      </g>
    </g>
    <g id="Group_31" data-name="Group 31" transform="translate(15 465.725)">
      <g id="Rectangle_2-8" data-name="Rectangle 2" class="cls-5" transform="translate(0 0.275)">
        <rect class="cls-24" width="276" height="228" rx="10"/>
        <rect class="cls-25" x="0.5" y="0.5" width="275" height="227" rx="9.5"/>
      </g>
    </g>
    <text id="Total_Booking_by_Ticket_for_the_past_30_Days-2" data-name="Total Booking by Ticket for the past 30 Days" class="cls-13" transform="translate(313 486)"><tspan x="0" y="0">Total Booking by Ticket for the past 30 Days</tspan></text>
    <text id="Total_Booking_for_the_past_14_Days-2" data-name="Total Booking for the past 14 Days" class="cls-13" transform="translate(25 486)"><tspan x="0" y="0">Total Booking for the past 14 Days</tspan></text>
    <text id="Total_Booking_Monthly" data-name="Total Booking Monthly" class="cls-13" transform="translate(25 258)"><tspan x="0" y="0">Total Booking Monthly</tspan></text>
    <text id="_24-2" data-name="24" class="cls-7" transform="translate(432 158)"><tspan x="0" y="0">24</tspan></text>
    <g id="Group_34" data-name="Group 34" transform="translate(544.786 35.592)">
      <circle id="Ellipse_3" data-name="Ellipse 3" class="cls-14" cx="13" cy="13" r="13" transform="translate(0.214 0.408)"/>
      <text id="A" class="cls-9" transform="translate(8.214 19.408)"><tspan x="0" y="0">A</tspan></text>
    </g>
    <g id="Group_35" data-name="Group 35" transform="translate(74.762 287.266)">
      <line id="Line_1" data-name="Line 1" class="cls-15" y2="131.175" transform="translate(12.161 0)"/>
      <path id="Path_43-2" data-name="Path 43" class="cls-15" d="M-35.959,0H440.4" transform="translate(35.959 122.024)"/>
      <path id="Path_44-2" data-name="Path 44" class="cls-16" d="M0,0V131.175" transform="translate(229.028 0)"/>
      <path id="Path_45-2" data-name="Path 45" class="cls-16" d="M-35.959,0H440.4" transform="translate(35.959 101.686)"/>
      <path id="Path_46-2" data-name="Path 46" class="cls-16" d="M-35.959,0H440.4" transform="translate(35.959 81.349)"/>
      <path id="Path_47-2" data-name="Path 47" class="cls-16" d="M-35.959,0H440.4" transform="translate(35.959 61.012)"/>
      <path id="Path_48-2" data-name="Path 48" class="cls-16" d="M-35.959,0H440.4" transform="translate(35.959 40.675)"/>
      <path id="Path_49-2" data-name="Path 49" class="cls-16" d="M-35.959,0H440.4" transform="translate(35.959 20.337)"/>
      <path id="Path_50" data-name="Path 50" class="cls-16" d="M-35.959,0H440.4" transform="translate(35.959 0)"/>
    </g>
    <rect id="Rectangle_16" data-name="Rectangle 16" class="cls-2" width="26" height="8" transform="translate(328 503)"/>
    <rect id="Rectangle_17" data-name="Rectangle 17" class="cls-4" width="25" height="8" transform="translate(414 503)"/>
    <rect id="Rectangle_18" data-name="Rectangle 18" class="cls-3" width="25" height="8" transform="translate(493 503)"/>
    <text id="August_2022" data-name="August 2022" class="cls-17" transform="translate(279 426)"><tspan x="0" y="0">August 2022</tspan></text>
    <circle id="Ellipse_4" data-name="Ellipse 4" class="cls-4" cx="4.5" cy="4.5" r="4.5" transform="translate(300 283)"/>
    <text id="Created_On" data-name="Created On" class="cls-18" transform="translate(280 440)"><tspan x="0" y="0">Created On</tspan></text>
    <text id="_0.0" data-name="0.0" class="cls-19" transform="translate(62 412)"><tspan x="0" y="0">0.0</tspan></text>
    <text id="_6.00" data-name="6.00" class="cls-19" transform="translate(59 290)"><tspan x="0" y="0">6.00</tspan></text>
    <text id="_5.00" data-name="5.00" class="cls-19" transform="translate(59 310)"><tspan x="0" y="0">5.00</tspan></text>
    <text id="_4.00" data-name="4.00" class="cls-19" transform="translate(59 330)"><tspan x="0" y="0">4.00</tspan></text>
    <text id="_3.00" data-name="3.00" class="cls-19" transform="translate(59 351)"><tspan x="0" y="0">3.00</tspan></text>
    <text id="_2.00" data-name="2.00" class="cls-19" transform="translate(59 371)"><tspan x="0" y="0">2.00</tspan></text>
    <text id="_1.00" data-name="1.00" class="cls-19" transform="translate(59 391)"><tspan x="0" y="0">1.00</tspan></text>
    <text id="Count" class="cls-18" transform="translate(47 361) rotate(-90)"><tspan x="0" y="0">Count</tspan></text>
    <rect id="Rectangle_19" data-name="Rectangle 19" class="cls-4" width="26" height="11" transform="translate(273 268)"/>
    <text id="Count-2" data-name="Count" class="cls-19" transform="translate(303 276)"><tspan x="0" y="0">Count</tspan></text>
    <text id="Booking_1" data-name="Booking 1" class="cls-19" transform="translate(358 510)"><tspan x="0" y="0">Booking 1</tspan></text>
    <text id="Booking_2" data-name="Booking 2" class="cls-19" transform="translate(443 510)"><tspan x="0" y="0">Booking 2</tspan></text>
    <text id="Booking_3" data-name="Booking 3" class="cls-19" transform="translate(522 510)"><tspan x="0" y="0">Booking 3</tspan></text>
    <g id="Group_36" data-name="Group 36" transform="translate(61.776 527.805)">
      <line id="Line_3" data-name="Line 3" class="cls-15" y2="128.125" transform="translate(6.101 0)"/>
      <line id="Line_4" data-name="Line 4" class="cls-15" x2="212.524" transform="translate(0 123.04)"/>
      <line id="Line_5" data-name="Line 5" class="cls-20" x2="212.524" transform="translate(0 98.636)"/>
      <line id="Line_7" data-name="Line 7" class="cls-20" x2="212.524" transform="translate(0 74.231)"/>
      <line id="Line_8" data-name="Line 8" class="cls-20" x2="212.524" transform="translate(0 49.826)"/>
      <line id="Line_9" data-name="Line 9" class="cls-20" x2="212.524" transform="translate(0 25.422)"/>
      <line id="Line_10" data-name="Line 10" class="cls-20" x2="212.524" transform="translate(0 1.017)"/>
      <line id="Line_11" data-name="Line 11" class="cls-20" y2="128.125" transform="translate(212.524 0)"/>
    </g>
    <rect id="Rectangle_20" data-name="Rectangle 20" class="cls-2" width="25" height="8" transform="translate(68 498)"/>
    <rect id="Rectangle_21" data-name="Rectangle 21" class="cls-4" width="25" height="8" transform="translate(138 499)"/>
    <rect id="Rectangle_22" data-name="Rectangle 22" class="cls-3" width="26" height="8" transform="translate(208 499)"/>
    <text id="Booking_1-2" data-name="Booking 1" class="cls-19" transform="translate(97 505)"><tspan x="0" y="0">Booking 1</tspan></text>
    <text id="Booking_2-2" data-name="Booking 2" class="cls-19" transform="translate(168 506)"><tspan x="0" y="0">Booking 2</tspan></text>
    <text id="Booking_3-2" data-name="Booking 3" class="cls-19" transform="translate(238 506)"><tspan x="0" y="0">Booking 3</tspan></text>
    <text id="Created_on-2" data-name="Created on" class="cls-19" transform="translate(148 682)"><tspan x="0" y="0">Created on</tspan></text>
    <text id="_11_Aug_2022" data-name="11 Aug 2022" class="cls-19" transform="translate(230 667)"><tspan x="0" y="0">11 Aug 2022</tspan></text>
    <text id="_10_Aug_2022" data-name="10 Aug 2022" class="cls-19" transform="translate(44 667)"><tspan x="0" y="0">10 Aug 2022</tspan></text>
    <text id="Amount" class="cls-19" transform="translate(29 594) rotate(-90)"><tspan x="0" y="0">Amount</tspan></text>
    <text id="_0.00" data-name="0.00" class="cls-19" transform="translate(44 654)"><tspan x="0" y="0">0.00</tspan></text>
    <text id="_40.00" data-name="40.00" class="cls-19" transform="translate(40 630)"><tspan x="0" y="0">40.00</tspan></text>
    <text id="_80.00" data-name="80.00" class="cls-19" transform="translate(40 605)"><tspan x="0" y="0">80.00</tspan></text>
    <text id="_120.00" data-name="120.00" class="cls-19" transform="translate(36 579)"><tspan x="0" y="0">120.00</tspan></text>
    <text id="_160.00" data-name="160.00" class="cls-19" transform="translate(36 556)"><tspan x="0" y="0">160.00</tspan></text>
    <text id="_200.00" data-name="200.00" class="cls-19" transform="translate(36 531)"><tspan x="0" y="0">200.00</tspan></text>
    <g id="Group_37" data-name="Group 37" transform="translate(64.826 610.12)">
      <line id="Line_12" data-name="Line 12" class="cls-21" y1="14.236" x2="207.44" transform="translate(2.542 2.542)"/>
      <circle id="Ellipse_5" data-name="Ellipse 5" class="cls-4" cx="3" cy="3" r="3" transform="translate(0.174 13.88)"/>
      <circle id="Ellipse_6" data-name="Ellipse 6" class="cls-4" cx="3" cy="3" r="3" transform="translate(206.174 -0.12)"/>
    </g>
    <g id="Group_38" data-name="Group 38" transform="translate(64.826 587.749)">
      <line id="Line_12-2" data-name="Line 12" class="cls-22" y1="58.978" x2="207.44" transform="translate(2.542 3.559)"/>
      <circle id="Ellipse_5-2" data-name="Ellipse 5" class="cls-3" cx="3" cy="3" r="3" transform="translate(0.174 60.251)"/>
      <circle id="Ellipse_6-2" data-name="Ellipse 6" class="cls-3" cx="3" cy="3" r="3" transform="translate(206.174 0.251)"/>
    </g>
    <g id="Group_39" data-name="Group 39" transform="translate(64.826 526.737)">
      <path id="Path_51" data-name="Path 51" class="cls-23" d="M0,59.238,207.4-61.26h0" transform="translate(2.542 64.311)"/>
      <circle id="Ellipse_5-3" data-name="Ellipse 5" class="cls-2" cx="3" cy="3" r="3" transform="translate(0.174 121.263)"/>
      <circle id="Ellipse_6-3" data-name="Ellipse 6" class="cls-2" cx="3" cy="3" r="3" transform="translate(206.174 0.263)"/>
    </g>
  </g>
</svg>
